<?xml version="1.0" encoding="utf-8"?>
<!-- Generator: Adobe Illustrator 24.0.1, SVG Export Plug-In . SVG Version: 6.00 Build 0)  -->
<svg version="1.1" xmlns="http://www.w3.org/2000/svg" xmlns:xlink="http://www.w3.org/1999/xlink" x="0px" y="0px"
	 viewBox="0 0 744.9 207.9" style="enable-background:new 0 0 744.9 207.9;" xml:space="preserve">
<style type="text/css">
	.st0{clip-path:url(#SVGID_2_);fill:url(#SVGID_3_);}
	.st1{clip-path:url(#SVGID_5_);fill:url(#SVGID_6_);}
	.st2{fill:#606060;}
	.st3{fill:url(#SVGID_7_);}
	.st4{fill:url(#SVGID_8_);}
	.st5{fill:url(#SVGID_9_);}
	.st6{fill:url(#SVGID_10_);}
	.st7{fill:url(#SVGID_11_);}
	.st8{clip-path:url(#SVGID_13_);fill:url(#SVGID_14_);}
	.st9{clip-path:url(#SVGID_16_);fill:url(#SVGID_17_);}
	.st10{clip-path:url(#SVGID_19_);fill:url(#SVGID_20_);}
	.st11{clip-path:url(#SVGID_22_);fill:url(#SVGID_23_);}
	.st12{clip-path:url(#SVGID_25_);fill:url(#SVGID_26_);}
	.st13{clip-path:url(#SVGID_28_);fill:url(#SVGID_29_);}
	.st14{clip-path:url(#SVGID_31_);fill:url(#SVGID_32_);}
	.st15{clip-path:url(#SVGID_34_);fill:url(#SVGID_35_);}
	.st16{clip-path:url(#SVGID_37_);fill:url(#SVGID_38_);}
	.st17{clip-path:url(#SVGID_40_);fill:url(#SVGID_41_);}
	.st18{clip-path:url(#SVGID_43_);fill:url(#SVGID_44_);}
	.st19{fill:url(#SVGID_45_);}
	.st20{fill:url(#SVGID_46_);}
	.st21{clip-path:url(#SVGID_48_);fill:url(#SVGID_49_);}
	.st22{clip-path:url(#SVGID_51_);fill:url(#SVGID_52_);}
	.st23{clip-path:url(#SVGID_54_);fill:url(#SVGID_55_);}
	.st24{clip-path:url(#SVGID_57_);fill:url(#SVGID_58_);}
	.st25{clip-path:url(#SVGID_60_);fill:url(#SVGID_61_);}
	.st26{clip-path:url(#SVGID_63_);fill:url(#SVGID_64_);}
	.st27{clip-path:url(#SVGID_66_);fill:url(#SVGID_67_);}
	.st28{fill:url(#SVGID_68_);}
	.st29{fill:url(#SVGID_69_);}
	.st30{fill:url(#SVGID_70_);}
	.st31{clip-path:url(#SVGID_72_);fill:url(#SVGID_73_);}
	.st32{clip-path:url(#SVGID_75_);fill:url(#SVGID_76_);}
	.st33{clip-path:url(#SVGID_78_);fill:url(#SVGID_79_);}
	.st34{clip-path:url(#SVGID_81_);fill:url(#SVGID_82_);}
	.st35{fill:url(#SVGID_83_);}
	.st36{fill:url(#SVGID_84_);}
	.st37{fill:url(#SVGID_85_);}
	.st38{clip-path:url(#SVGID_87_);fill:#FFFFFF;}
	.st39{clip-path:url(#SVGID_89_);fill:#FFFFFF;}
	.st40{clip-path:url(#SVGID_91_);fill:#FFFFFF;}
	.st41{clip-path:url(#SVGID_93_);fill:#FFFFFF;}
	.st42{fill:#FFFFFF;}
	.st43{clip-path:url(#SVGID_95_);}
	.st44{clip-path:url(#SVGID_97_);}
	.st45{clip-path:url(#SVGID_99_);}
	.st46{clip-path:url(#SVGID_101_);}
	.st47{clip-path:url(#SVGID_103_);fill:url(#SVGID_104_);}
	.st48{clip-path:url(#SVGID_106_);fill:url(#SVGID_107_);}
	.st49{clip-path:url(#SVGID_109_);fill:url(#SVGID_110_);}
	.st50{clip-path:url(#SVGID_112_);fill:url(#SVGID_113_);}
	.st51{fill:url(#SVGID_114_);}
	.st52{fill:url(#SVGID_115_);}
	.st53{fill:url(#SVGID_116_);}
	.st54{clip-path:url(#SVGID_118_);fill:url(#SVGID_119_);}
	.st55{clip-path:url(#SVGID_121_);fill:url(#SVGID_122_);}
	.st56{clip-path:url(#SVGID_124_);fill:url(#SVGID_125_);}
	.st57{clip-path:url(#SVGID_127_);fill:url(#SVGID_128_);}
	.st58{clip-path:url(#SVGID_130_);fill:url(#SVGID_131_);}
	.st59{clip-path:url(#SVGID_133_);fill:url(#SVGID_134_);}
	.st60{fill:url(#SVGID_135_);}
	.st61{fill:url(#SVGID_136_);}
	.st62{fill:url(#SVGID_137_);}
	.st63{clip-path:url(#SVGID_139_);fill:#FFFFFF;}
	.st64{clip-path:url(#SVGID_141_);fill:#FFFFFF;}
	.st65{clip-path:url(#SVGID_143_);fill:#FFFFFF;}
	.st66{clip-path:url(#SVGID_145_);fill:#FFFFFF;}
	.st67{clip-path:url(#SVGID_147_);fill:#FFFFFF;}
	.st68{clip-path:url(#SVGID_149_);fill:#FFFFFF;}
	.st69{clip-path:url(#SVGID_151_);}
	.st70{clip-path:url(#SVGID_153_);}
	.st71{clip-path:url(#SVGID_155_);}
	.st72{clip-path:url(#SVGID_157_);}
	.st73{clip-path:url(#SVGID_159_);}
	.st74{clip-path:url(#SVGID_161_);}
	.st75{clip-path:url(#SVGID_163_);fill:url(#SVGID_164_);}
	.st76{clip-path:url(#SVGID_166_);fill:url(#SVGID_167_);}
	.st77{clip-path:url(#SVGID_169_);fill:url(#SVGID_170_);}
	.st78{clip-path:url(#SVGID_172_);fill:url(#SVGID_173_);}
	.st79{fill:url(#SVGID_174_);}
	.st80{fill:url(#SVGID_175_);}
	.st81{fill:url(#SVGID_176_);}
	.st82{clip-path:url(#SVGID_178_);fill:url(#SVGID_179_);}
	.st83{clip-path:url(#SVGID_181_);fill:url(#SVGID_182_);}
	.st84{clip-path:url(#SVGID_184_);fill:url(#SVGID_185_);}
	.st85{clip-path:url(#SVGID_187_);fill:url(#SVGID_188_);}
	.st86{clip-path:url(#SVGID_190_);fill:url(#SVGID_191_);}
	.st87{clip-path:url(#SVGID_193_);fill:url(#SVGID_194_);}
	.st88{fill:url(#SVGID_195_);}
	.st89{fill:url(#SVGID_196_);}
	.st90{fill:url(#SVGID_197_);}
	.st91{clip-path:url(#SVGID_199_);fill:#FFFFFF;}
	.st92{clip-path:url(#SVGID_201_);fill:#FFFFFF;}
	.st93{clip-path:url(#SVGID_203_);fill:#FFFFFF;}
	.st94{clip-path:url(#SVGID_205_);fill:#FFFFFF;}
	.st95{clip-path:url(#SVGID_207_);fill:#FFFFFF;}
	.st96{clip-path:url(#SVGID_209_);fill:#FFFFFF;}
	.st97{clip-path:url(#SVGID_211_);}
	.st98{clip-path:url(#SVGID_213_);}
	.st99{clip-path:url(#SVGID_215_);}
	.st100{clip-path:url(#SVGID_217_);}
	.st101{clip-path:url(#SVGID_219_);}
	.st102{clip-path:url(#SVGID_221_);}
	.st103{clip-path:url(#SVGID_223_);fill:url(#SVGID_224_);}
	.st104{clip-path:url(#SVGID_226_);fill:url(#SVGID_227_);}
	.st105{clip-path:url(#SVGID_229_);fill:url(#SVGID_230_);}
	.st106{clip-path:url(#SVGID_232_);fill:url(#SVGID_233_);}
	.st107{fill:url(#SVGID_234_);}
	.st108{fill:url(#SVGID_235_);}
	.st109{fill:url(#SVGID_236_);}
	.st110{clip-path:url(#SVGID_238_);fill:url(#SVGID_239_);}
	.st111{clip-path:url(#SVGID_241_);fill:url(#SVGID_242_);}
	.st112{clip-path:url(#SVGID_244_);fill:url(#SVGID_245_);}
	.st113{clip-path:url(#SVGID_247_);fill:url(#SVGID_248_);}
	.st114{fill:url(#SVGID_249_);}
	.st115{fill:url(#SVGID_250_);}
	.st116{fill:url(#SVGID_251_);}
	.st117{clip-path:url(#SVGID_253_);fill:url(#SVGID_254_);}
	.st118{clip-path:url(#SVGID_256_);fill:url(#SVGID_257_);}
	.st119{clip-path:url(#SVGID_259_);fill:url(#SVGID_260_);}
	.st120{clip-path:url(#SVGID_262_);fill:url(#SVGID_263_);}
	.st121{fill:url(#SVGID_264_);}
	.st122{fill:url(#SVGID_265_);}
	.st123{fill:url(#SVGID_266_);}
	.st124{clip-path:url(#SVGID_268_);fill:url(#SVGID_269_);}
	.st125{clip-path:url(#SVGID_271_);fill:url(#SVGID_272_);}
	.st126{clip-path:url(#SVGID_274_);fill:url(#SVGID_275_);}
	.st127{clip-path:url(#SVGID_277_);fill:url(#SVGID_278_);}
	.st128{fill:url(#SVGID_279_);}
	.st129{fill:url(#SVGID_280_);}
	.st130{fill:url(#SVGID_281_);}
</style>
<g id="Layer_1">
	<g>
		<path d="M426.3,52.8h-48.5V41h48.5V52.8z M395.8,136.7V2.6h12.5v131.9c0,0,4.8,10.4,17.2,5.2v11.6
			C425.5,151.4,397.6,158.4,395.8,136.7"/>
		<path d="M453.1,132.1c2.5,3.7,5.8,6.5,10.1,8.3c4.2,1.8,8.9,2.8,14.1,2.8c6.2,0,12-1.4,17.2-4.3c5.2-2.9,9.4-7.1,12.6-12.7
			c3.2-5.6,4.8-12.5,4.8-20.7l2.9,10.6c0,8.6-2.1,15.8-6.2,21.4c-4.2,5.6-9.4,9.8-15.6,12.5c-6.2,2.7-12.6,4.1-19,4.1
			c-6.2,0-12.3-1.3-18-4c-5.8-2.6-10.4-6.5-13.9-11.7c-3.5-5.1-5.3-11.6-5.3-19.5c0-10.7,3.7-19.2,11.2-25.5
			c7.4-6.2,17.6-9.4,30.4-9.4c7.2,0,13.4,0.8,18.6,2.5c5.2,1.7,9.5,3.6,12.9,5.6c3.4,2.1,5.8,3.8,7.2,5.3v7.9
			c-5.4-3.8-11.3-6.7-17.4-8.5c-6.2-1.8-12.6-2.8-19.3-2.8c-6.2,0-11.7,0.9-16.2,2.6c-4.6,1.8-8.1,4.4-10.7,7.9
			c-2.6,3.5-3.8,8.1-3.8,13.7C449.4,123.8,450.6,128.4,453.1,132.1 M443.6,51.8c4.2-2.9,9.6-5.8,16.2-8.8c6.6-3,14.9-4.4,24.6-4.4
			c8.3,0,15.5,1.4,21.4,4.1c5.9,2.7,10.5,6.6,13.7,11.8c3.2,5.1,4.8,11.4,4.8,18.7v78.3h-12.5V74.9c0-3.2-0.5-6.3-1.4-9.2
			c-1-3-2.5-5.6-4.7-8c-2.2-2.4-5.1-4.3-8.8-5.8c-3.7-1.4-8.2-2.2-13.5-2.2c-5.4,0-10.3,0.6-14.7,1.9c-4.3,1.3-8,2.8-11.2,4.6
			c-3.1,1.8-5.7,3.4-7.8,5L443.6,51.8z"/>
		<path d="M542.5,44.5H555v163.4h-12.5V44.5z M642.3,130.5c-4.7,8.6-11.1,15.3-19.2,19.9c-8.1,4.6-17.1,7-27,7
			c-9.3,0-17.5-2.5-24.5-7.6c-7-5-12.5-11.9-16.5-20.7c-3.9-8.7-5.9-18.5-5.9-29.4c0-11.1,2-20.9,5.9-29.6
			c3.9-8.6,9.4-15.5,16.5-20.5c7-5,15.2-7.6,24.5-7.6c9.9,0,18.9,2.3,27,7c8.1,4.6,14.5,11.3,19.2,19.8c4.7,8.6,7.1,18.9,7.1,30.9
			C649.4,111.6,647,121.9,642.3,130.5 M631.1,75c-3.8-6.9-9-12.1-15.4-15.7c-6.4-3.6-13.5-5.4-21.4-5.4c-6.7,0-13.1,2-19.2,6
			c-6.1,4-11,9.5-14.7,16.3c-3.7,6.9-5.5,14.7-5.5,23.5c0,8.8,1.8,16.7,5.5,23.5c3.7,6.9,8.6,12.3,14.7,16.3c6.1,4,12.5,6,19.2,6
			c7.8,0,15-1.8,21.4-5.4c6.4-3.6,11.5-8.8,15.4-15.7c3.8-6.9,5.8-15.1,5.8-24.7C636.9,90.1,635,81.9,631.1,75"/>
		<path d="M667.2,2.5c1.8-1.7,3.8-2.5,6.2-2.5c2.6,0,4.7,0.8,6.4,2.5c1.7,1.7,2.5,3.8,2.5,6.4c0,2.4-0.8,4.5-2.5,6.2
			c-1.7,1.8-3.8,2.6-6.4,2.6c-2.4,0-4.5-0.9-6.2-2.6c-1.8-1.8-2.6-3.8-2.6-6.2C664.6,6.3,665.5,4.2,667.2,2.5 M679.7,151.5h-12.5V41
			h12.5V151.5z"/>
		<g>
			<defs>
				<path id="SVGID_117_" d="M25.7,6.5C19.6,9.8,14.8,14.3,11.4,20C8,25.7,6.3,32.4,6.3,40.1h11.1c0-8.1,2.7-14.8,8.2-20.1
					c5.4-5.3,12.6-8,21.4-8c6,0,11.1,1.3,15.2,3.9c4.1,2.6,7.3,6,9.4,10.3c2.2,4.3,3.2,8.9,3.2,13.9c0,4.3-0.9,8.3-2.8,11.8
					c-1.9,3.6-4.5,6.6-7.7,9.1c-3.3,2.5-7,4.5-11.2,5.9c-4.2,1.4-8.7,2.1-13.4,2.1v7.5v2.7c4.7,0,9.4,0.7,14,2
					c4.6,1.3,8.8,3.3,12.7,6c3.8,2.7,6.9,6,9.2,9.9c2.3,4,3.5,8.6,3.5,13.9c0,6-1.4,11.3-4.1,15.8c-2.7,4.5-6.6,8.1-11.5,10.7
					c-5,2.6-10.8,3.9-17.5,3.9c-7,0-13.1-1.3-18.2-3.9c-5.2-2.6-9.1-6.1-11.8-10.7c-2.7-4.5-4.1-9.7-4.1-15.4H0c0,5.7,1,11.1,3.1,16
					c2.1,5,5.1,9.3,9.1,13c4,3.7,8.8,6.6,14.4,8.7c5.7,2.1,12,3.1,19.2,3.1c8.8,0,16.5-1.7,23.2-5c6.7-3.3,12-8,15.8-14
					c3.8-6,5.8-13,5.8-20.9c0-7-1.4-13.1-4.3-18.2c-2.9-5.2-6.7-9.4-11.6-12.7c-4.9-3.3-10.4-5.7-16.4-7.3c-0.3-0.1-0.5-0.1-0.8-0.2
					c1.9-0.6,3.8-1.3,5.6-2.1c7-3.1,12.7-7.5,17-13.1c4.3-5.6,6.4-11.9,6.4-19.1c0-6.7-1.6-12.9-4.7-18.6c-3.1-5.7-7.7-10.4-13.6-14
					c-5.9-3.6-13.1-5.4-21.5-5.4C38.7,1.6,31.7,3.2,25.7,6.5"/>
			</defs>
			<clipPath id="SVGID_2_">
				<use xlink:href="#SVGID_117_"  style="overflow:visible;"/>
			</clipPath>
			
				<linearGradient id="SVGID_3_" gradientUnits="userSpaceOnUse" x1="-1945.8551" y1="2342.7529" x2="-1944.8551" y2="2342.7529" gradientTransform="matrix(376.6048 0 0 -376.6048 732814.3125 882369)">
				<stop  offset="0" style="stop-color:#0092EA"/>
				<stop  offset="0.9974" style="stop-color:#006ADE"/>
				<stop  offset="1" style="stop-color:#006ADE"/>
			</linearGradient>
			<rect x="0" y="1.6" class="st0" width="90.7" height="150.8"/>
		</g>
		<g>
			<defs>
				<path id="SVGID_120_" d="M131.1,136.7c-5.6-3.4-9.9-8-13.1-13.8c-3.1-5.8-4.7-12.5-4.7-20c0-7,1.6-13.4,4.7-19.2
					c3.1-5.8,7.5-10.4,13.2-13.8c5.7-3.4,12.3-5.1,20-5.1c6.8,0,13,1.6,18.4,4.9c5.4,3.3,9.8,7.8,13,13.6c3.2,5.8,4.8,12.3,4.8,19.6
					c0,7.5-1.6,14.2-4.7,20c-3.1,5.8-7.5,10.4-13.1,13.8c-5.6,3.4-12,5.1-19.3,5.1C143.1,141.9,136.7,140.2,131.1,136.7 M160.9,3.7
					l-48.4,67.6c-2.8,3.9-5.2,8.7-7.2,14.2c-2,5.6-3,11.4-3,17.4c0,9.8,2.1,18.4,6.2,25.8c4.1,7.4,9.8,13.2,17.1,17.4
					c7.3,4.2,15.6,6.3,24.9,6.3c9.5,0,17.8-2.1,25-6.3c7.2-4.2,12.8-10,17-17.4c4.1-7.4,6.2-16,6.2-25.8c0-6.6-1.1-12.7-3.4-18.3
					c-2.2-5.7-5.3-10.6-9.3-14.9c-4-4.3-8.6-7.6-13.8-9.9c-5.2-2.4-10.9-3.6-16.9-3.6c-6,0-11.4,0.9-16.1,2.8
					c-2.8,1.1-5.3,2.6-7.6,4.5l43.9-59.8H160.9z"/>
			</defs>
			<clipPath id="SVGID_5_">
				<use xlink:href="#SVGID_120_"  style="overflow:visible;"/>
			</clipPath>
			
				<linearGradient id="SVGID_6_" gradientUnits="userSpaceOnUse" x1="-1945.8551" y1="2342.7529" x2="-1944.8551" y2="2342.7529" gradientTransform="matrix(376.6048 0 0 -376.6048 732804.3125 882370.0625)">
				<stop  offset="0" style="stop-color:#0092EA"/>
				<stop  offset="0.9974" style="stop-color:#006ADE"/>
				<stop  offset="1" style="stop-color:#006ADE"/>
			</linearGradient>
			<rect x="102.2" y="3.7" class="st1" width="96.3" height="148.7"/>
		</g>
		<path d="M744.9,52.8h-48.5V41h48.5V52.8z M714.4,136.7V2.6h12.5v131.9c0,0,4.8,10.4,17.2,5.2v11.6
			C744,151.4,716.2,158.4,714.4,136.7"/>
		<g>
			<defs>
				<path id="SVGID_123_" d="M302.8,4.1c6.5,1.6,12.4,4.3,18,7.5c5.7,3.2,10.8,7.3,15.5,11.9c4.6,4.6,8.6,9.8,11.9,15.5l-8.6,5
					l-8.7,5l-8.6,5c-2.1-3.5-4.4-6.6-7.1-9.2c-2.7-2.7-5.8-5.2-9.2-7.1c-3.3-1.9-7-3.5-10.9-4.5c-3.7-1-7.6-1.5-11.5-1.5
					c-4.1,0-7.8,0.4-11.5,1.5c-3.8,1.1-7.5,2.5-10.9,4.5c-3.5,2.1-6.6,4.4-9.2,7.1l7,7c2.2-2.2,4.5-4.1,7.3-5.6
					c2.6-1.5,5.5-2.7,8.5-3.5c2.9-0.8,5.9-1.2,9-1.2c3.1,0,6.3,0.2,9.1,1.1c3,0.9,5.8,2.1,8.5,3.5c2.6,1.5,5.2,3.5,7.3,5.6
					c2.2,2.2,4.1,4.5,5.6,7.3l-9.6,4.9L272,85.8l21.8-20.4l7-6.9c-1.5-1.5-3.2-2.9-5.2-4c-1.9-1.1-4-1.9-5.9-2.5
					c-1.9-0.5-4.2-0.9-6.5-0.9c-2.3,0-4.4,0.2-6.5,0.9c-2.2,0.6-4.2,1.4-5.9,2.5c-1.9,1.1-3.6,2.4-5.2,4c-1.6,1.6-2.9,3.2-4,5.2
					l-8.6-5l-8.6-5l-8.6-5c2.4-4.2,5.4-8,8.7-11.3c3.3-3.3,7.1-6.3,11.3-8.7c4.1-2.4,8.6-4.2,13.2-5.5c4.5-1.2,9.2-1.9,14.2-1.9
					c4.8,0,9.7,0.6,14.2,1.9c4.6,1.2,9,3.1,13.2,5.5c4.2,2.4,8,5.4,11.3,8.7l7-7c-4-4-8.5-7.5-13.3-10.2c-4.8-2.7-10.1-5-15.6-6.5
					c-5.4-1.4-11-2.2-16.8-2.2c-5.8,0-11.4,0.8-16.8,2.2c-5.5,1.4-10.7,3.7-15.6,6.5c-4.8,2.9-9.3,6.3-13.3,10.2
					c-4,4-7.1,8.7-9.9,13.5l-8.7-4.9c3.2-5.7,7-11,11.6-15.7c4.6-4.6,9.8-8.6,15.5-11.9c5.6-3.2,11.6-5.7,18-7.5
					c6.2-1.6,12.6-2.5,19.3-2.5C290.2,1.6,296.7,2.5,302.8,4.1"/>
			</defs>
			<clipPath id="SVGID_7_">
				<use xlink:href="#SVGID_123_"  style="overflow:visible;"/>
			</clipPath>
			
				<linearGradient id="SVGID_8_" gradientUnits="userSpaceOnUse" x1="-1945.358" y1="2334.0435" x2="-1944.4232" y2="2334.0435" gradientTransform="matrix(-138.0236 0 0 138.0236 -268157.625 -322109.4062)">
				<stop  offset="0" style="stop-color:#0092EA"/>
				<stop  offset="0.9974" style="stop-color:#006ADE"/>
				<stop  offset="1" style="stop-color:#006ADE"/>
			</linearGradient>
			<rect x="218.9" y="1.6" style="clip-path:url(#SVGID_7_);fill:url(#SVGID_8_);" width="129.3" height="84.2"/>
		</g>
		<g>
			<defs>
				<path id="SVGID_126_" d="M304.8,63.7l-7.5-1.6l3.5-3.6C302.4,60.1,303.6,61.8,304.8,63.7"/>
			</defs>
			<clipPath id="SVGID_9_">
				<use xlink:href="#SVGID_126_"  style="overflow:visible;"/>
			</clipPath>
			
				<linearGradient id="SVGID_10_" gradientUnits="userSpaceOnUse" x1="-1861.8336" y1="2192.0227" x2="-1860.8988" y2="2192.0227" gradientTransform="matrix(-7.9834 0 0 7.9834 -14558.9609 -17438.6562)">
				<stop  offset="0" style="stop-color:#0092EA"/>
				<stop  offset="0.9974" style="stop-color:#006ADE"/>
				<stop  offset="1" style="stop-color:#006ADE"/>
			</linearGradient>
			<rect x="297.3" y="58.5" style="clip-path:url(#SVGID_9_);fill:url(#SVGID_10_);" width="7.5" height="5.2"/>
		</g>
		<g>
			<defs>
				<path id="SVGID_129_" d="M339.2,43.9l-13.6-9.6l3.3-3.7C332.8,34.5,336.3,39,339.2,43.9"/>
			</defs>
			<clipPath id="SVGID_11_">
				<use xlink:href="#SVGID_129_"  style="overflow:visible;"/>
			</clipPath>
			
				<linearGradient id="SVGID_13_" gradientUnits="userSpaceOnUse" x1="-1902.3096" y1="2261.2129" x2="-1901.3748" y2="2261.2129" gradientTransform="matrix(-14.7372 0 0 14.7372 -27695.5996 -33286.7656)">
				<stop  offset="0" style="stop-color:#0092EA"/>
				<stop  offset="0.9974" style="stop-color:#006ADE"/>
				<stop  offset="1" style="stop-color:#006ADE"/>
			</linearGradient>
			<rect x="325.5" y="30.6" style="clip-path:url(#SVGID_11_);fill:url(#SVGID_13_);" width="13.7" height="13.3"/>
		</g>
		<g>
			<defs>
				<path id="SVGID_132_" d="M255.5,48.2l-10.6,5.7c1.9-3.5,4.2-6.3,7.1-9.2L255.5,48.2z"/>
			</defs>
			<clipPath id="SVGID_14_">
				<use xlink:href="#SVGID_132_"  style="overflow:visible;"/>
			</clipPath>
			
				<linearGradient id="SVGID_16_" gradientUnits="userSpaceOnUse" x1="-1889.1335" y1="2236.9148" x2="-1887.6035" y2="2236.9148" gradientTransform="matrix(-11.3604 0 0 11.3604 -21199.0332 -25363.0332)">
				<stop  offset="0" style="stop-color:#0092EA"/>
				<stop  offset="0.9974" style="stop-color:#006ADE"/>
				<stop  offset="1" style="stop-color:#006ADE"/>
			</linearGradient>
			<rect x="244.9" y="44.7" style="clip-path:url(#SVGID_14_);fill:url(#SVGID_16_);" width="17.2" height="9.2"/>
		</g>
		<linearGradient id="SVGID_17_" gradientUnits="userSpaceOnUse" x1="363.2701" y1="76.7254" x2="198.7671" y2="76.7254">
			<stop  offset="0" style="stop-color:#0092EA"/>
			<stop  offset="0.9974" style="stop-color:#006ADE"/>
			<stop  offset="1" style="stop-color:#006ADE"/>
		</linearGradient>
		<path style="fill:url(#SVGID_17_);" d="M355.7,70.7c-0.4,39.4-32.1,70.9-70.7,70.5c-0.7,0-1.5,0-2.2-0.1
			c-35.2-0.5-63.6-29.2-63.6-64.5c0-35.6,28.9-64.5,64.5-64.5c23.7,0,44.5,12.8,55.7,31.9l8.8-5.1c-13-22.1-37-37-64.5-37
			c-41.3,0-74.7,33.4-74.7,74.7c0,41.2,33.4,74.7,74.7,74.7s74.7-33.4,74.7-74.7c0-9.3-1.7-18.2-4.8-26.3
			C355.1,56.9,355.7,63.8,355.7,70.7z"/>
		<g>
			<g>
				
					<linearGradient id="SVGID_19_" gradientUnits="userSpaceOnUse" x1="-933.9299" y1="77.6194" x2="-861.5885" y2="77.6194" gradientTransform="matrix(-1 0 0 1 -613.8825 0)">
					<stop  offset="0" style="stop-color:#0092EA"/>
					<stop  offset="0.9974" style="stop-color:#006ADE"/>
					<stop  offset="1" style="stop-color:#006ADE"/>
				</linearGradient>
				<path style="fill:url(#SVGID_19_);" d="M283.9,113.8c-19.9,0-36.2-16.2-36.2-36.2s16.2-36.2,36.2-36.2S320,57.7,320,77.6
					S303.8,113.8,283.9,113.8z M283.9,41.8c-19.7,0-35.8,16.1-35.8,35.8c0,19.7,16.1,35.8,35.8,35.8c19.7,0,35.8-16.1,35.8-35.8
					C319.7,57.9,303.6,41.8,283.9,41.8z"/>
			</g>
			<g>
				
					<linearGradient id="SVGID_20_" gradientUnits="userSpaceOnUse" x1="-952.6019" y1="76.5769" x2="-842.3033" y2="76.5769" gradientTransform="matrix(-1 0 0 1 -613.8825 0)">
					<stop  offset="0" style="stop-color:#0092EA"/>
					<stop  offset="0.9974" style="stop-color:#006ADE"/>
					<stop  offset="1" style="stop-color:#006ADE"/>
				</linearGradient>
				<path style="fill:url(#SVGID_20_);" d="M283.6,131.7c-30.4,0-55.1-24.7-55.1-55.1s24.7-55.1,55.1-55.1
					c30.4,0,55.1,24.7,55.1,55.1S314,131.7,283.6,131.7z M283.6,21.8c-30.2,0-54.8,24.6-54.8,54.8s24.6,54.8,54.8,54.8
					c30.2,0,54.8-24.6,54.8-54.8S313.8,21.8,283.6,21.8z"/>
			</g>
		</g>
	</g>
</g>
<g id="Layer_2">
</g>
</svg>
